<svg width="26" height="26" viewBox="0 0 26 26" fill="none" xmlns="http://www.w3.org/2000/svg">
<path fill-rule="evenodd" clip-rule="evenodd" d="M5.60308 13C5.60308 12.1556 5.74323 11.3459 5.99369 10.5866L1.61228 7.24097C0.758344 8.97464 0.277344 10.9283 0.277344 13C0.277344 15.07 0.757937 17.0222 1.61045 18.7549L5.98942 15.4027C5.74141 14.6469 5.60308 13.8403 5.60308 13Z" fill="#FBBC05"/>
<path fill-rule="evenodd" clip-rule="evenodd" d="M13.2959 5.31822C15.1303 5.31822 16.7872 5.96822 18.089 7.03178L21.8761 3.25C19.5684 1.24089 16.6096 0 13.2959 0C8.1511 0 3.72948 2.94206 1.6123 7.241L5.99351 10.5867C7.00304 7.52233 9.88071 5.31822 13.2959 5.31822Z" fill="#EA4335"/>
<path fill-rule="evenodd" clip-rule="evenodd" d="M13.2959 20.6818C9.88091 20.6818 7.00324 18.4777 5.99371 15.4133L1.6123 18.7584C3.72948 23.0579 8.1511 26 13.2959 26C16.4711 26 19.5027 24.8725 21.7779 22.76L17.6192 19.5449C16.4457 20.2841 14.968 20.6818 13.2959 20.6818Z" fill="#34A853"/>
<path fill-rule="evenodd" clip-rule="evenodd" d="M25.7225 13C25.7225 12.2318 25.604 11.4044 25.4265 10.6364H13.2959V15.6591H20.2785C19.9293 17.3716 18.9791 18.6881 17.6192 19.5449L21.778 22.7599C24.168 20.5418 25.7225 17.2374 25.7225 13Z" fill="#4285F4"/>
</svg>
