<svg width="52" height="66" viewBox="0 0 52 66" fill="none" xmlns="http://www.w3.org/2000/svg">
<mask id="path-1-inside-1" fill="white">
<path d="M42.0311 37.1749L29.0373 32.1003L39.0217 7.12425L9.68416 28.4108L22.678 33.4854L12.7941 58.204L42.0311 37.1749Z"/>
</mask>
<path d="M42.0311 37.1749L71.2266 77.7658C86.1012 67.0671 93.9326 49.0894 91.6372 30.9112C89.3419 12.733 77.2875 -2.73377 60.2203 -9.39924L42.0311 37.1749ZM29.0373 32.1003L-17.3904 13.5404C-22.3384 25.9179 -22.1392 39.7588 -16.837 51.9888C-11.5347 64.2188 -1.56851 73.8252 10.8481 78.6744L29.0373 32.1003ZM39.0217 7.12425L85.4494 25.6841C93.7146 5.00856 87.3119 -18.6411 69.7449 -32.323C52.1779 -46.0049 27.6803 -46.4217 9.6581 -33.3453L39.0217 7.12425ZM9.68416 28.4108L-19.6794 -12.0587C-34.4794 -1.32024 -42.2372 16.6408 -39.9089 34.7773C-37.5805 52.9139 -25.5376 68.333 -8.50506 74.9849L9.68416 28.4108ZM22.678 33.4854L69.1041 52.0492C74.0535 39.6714 73.8551 25.8297 68.5531 13.5988C63.2511 1.36795 53.2844 -8.23928 40.8672 -13.0887L22.678 33.4854ZM12.7941 58.204L-33.632 39.6402C-41.885 60.2802 -35.5208 83.8903 -18.0124 97.5862C-0.504002 111.282 23.9439 111.775 41.9897 98.7949L12.7941 58.204ZM60.2203 -9.39924L47.2265 -14.4739L10.8481 78.6744L23.8419 83.7491L60.2203 -9.39924ZM75.465 50.6602L85.4494 25.6841L-7.40601 -11.4357L-17.3904 13.5404L75.465 50.6602ZM9.6581 -33.3453L-19.6794 -12.0587L39.0477 68.8803L68.3853 47.5937L9.6581 -33.3453ZM-8.50506 74.9849L4.48877 80.0596L40.8672 -13.0887L27.8734 -18.1634L-8.50506 74.9849ZM-23.7482 14.9217L-33.632 39.6402L59.2203 76.7677L69.1041 52.0492L-23.7482 14.9217ZM41.9897 98.7949L71.2266 77.7658L12.8356 -3.41599L-16.4014 17.6131L41.9897 98.7949Z" fill="#4721E1" mask="url(#path-1-inside-1)"/>
</svg>
